<svg width="38" height="39" viewBox="0 0 38 39" fill="none" xmlns="http://www.w3.org/2000/svg">
<path d="M6.33333 19.5002C6.33333 13.529 6.33333 10.5435 8.18831 8.68848C10.0433 6.8335 13.0289 6.8335 19 6.8335C24.9711 6.8335 27.9568 6.8335 29.8116 8.68848C31.6667 10.5435 31.6667 13.529 31.6667 19.5002C31.6667 25.4712 31.6667 28.4569 29.8116 30.3118C27.9568 32.1668 24.9711 32.1668 19 32.1668C13.0289 32.1668 10.0433 32.1668 8.18831 30.3118C6.33333 28.4569 6.33333 25.4712 6.33333 19.5002Z" stroke="url(#paint0_linear_4449_8304)" stroke-width="2.375" stroke-linejoin="round"/>
<path d="M11.875 24.25L14.7913 15.501C14.9408 15.0525 15.3606 14.75 15.8333 14.75C16.3061 14.75 16.7259 15.0525 16.8753 15.501L19.7917 24.25M13.4583 21.0833H18.2083" stroke="url(#paint1_linear_4449_8304)" stroke-width="2.375" stroke-linecap="round" stroke-linejoin="round"/>
<path d="M24.5417 14.75V24.25" stroke="url(#paint2_linear_4449_8304)" stroke-width="2.375" stroke-linecap="round" stroke-linejoin="round"/>
<path d="M12.6667 3.6665V6.83317M25.3333 3.6665V6.83317M19 3.6665V6.83317M12.6667 32.1665V35.3332M19 32.1665V35.3332M25.3333 32.1665V35.3332M34.8333 25.8332H31.6667M6.33334 13.1665H3.16667M6.33334 25.8332H3.16667M6.33334 19.4998H3.16667M34.8333 13.1665H31.6667M34.8333 19.4998H31.6667" stroke="url(#paint3_linear_4449_8304)" stroke-width="2.375" stroke-linecap="round" stroke-linejoin="round"/>
<defs>
<linearGradient id="paint0_linear_4449_8304" x1="6.33333" y1="6.8335" x2="43.5998" y2="12.5438" gradientUnits="userSpaceOnUse">
<stop stop-color="#1644E9"/>
<stop offset="1" stop-color="#D92EF5"/>
</linearGradient>
<linearGradient id="paint1_linear_4449_8304" x1="11.875" y1="14.75" x2="23.603" y2="16.2476" gradientUnits="userSpaceOnUse">
<stop stop-color="#1644E9"/>
<stop offset="1" stop-color="#D92EF5"/>
</linearGradient>
<linearGradient id="paint2_linear_4449_8304" x1="24.5417" y1="14.75" x2="26.0469" y2="14.7743" gradientUnits="userSpaceOnUse">
<stop stop-color="#1644E9"/>
<stop offset="1" stop-color="#D92EF5"/>
</linearGradient>
<linearGradient id="paint3_linear_4449_8304" x1="3.16667" y1="3.6665" x2="49.7497" y2="10.8044" gradientUnits="userSpaceOnUse">
<stop stop-color="#1644E9"/>
<stop offset="1" stop-color="#D92EF5"/>
</linearGradient>
</defs>
</svg>
