<svg width="21" height="20" viewBox="0 0 21 20" fill="none" xmlns="http://www.w3.org/2000/svg">
<rect x="0.599976" width="20" height="20" rx="10" fill="#2EBB79"/>
<path d="M13.2133 7.34001C13.3378 7.21557 13.4855 7.15335 13.6566 7.15335C13.8278 7.15335 13.9755 7.21557 14.1 7.34001C14.2244 7.46446 14.2944 7.62001 14.31 7.80668C14.3255 7.99335 14.2711 8.1489 14.1466 8.27335L10.6466 12.6133C10.5222 12.7689 10.3666 12.8467 10.18 12.8467C9.99332 12.8467 9.83776 12.7845 9.71332 12.66L7.37998 10.3267C7.19332 10.1711 7.13109 9.96112 7.19332 9.69668C7.25554 9.43224 7.41109 9.2689 7.65998 9.20668C7.90887 9.14446 8.12665 9.20668 8.31332 9.39335L10.1333 11.26L13.1666 7.38668L13.2133 7.34001Z" fill="white"/>
</svg>
