<svg width="38" height="38" viewBox="0 0 38 38" fill="none" xmlns="http://www.w3.org/2000/svg">
<path fill-rule="evenodd" clip-rule="evenodd" d="M8.37638 2.04795C10.6091 1.68562 12.758 2.76581 14.2767 4.95062C15.4047 6.57341 15.5847 8.95501 15.3679 11.3544C15.1428 13.8439 14.4524 16.7284 13.4495 19.6666C13.0132 20.9446 12.5132 22.2461 11.9588 23.5431C12.2698 23.19 12.5973 22.7371 13.0181 22.1553C13.1234 22.0096 13.2346 21.8559 13.3527 21.6937C13.9454 20.8802 14.6614 19.9332 15.5421 19.0389C16.1193 18.4531 16.8224 18.028 17.6426 17.9141C18.4672 17.7997 19.2077 18.0278 19.8012 18.3811C19.9896 18.493 20.1686 18.6206 20.3387 18.7606C20.45 18.6138 20.5651 18.4707 20.684 18.3315C21.5214 17.3524 22.6675 16.4421 24.0974 16.1733C25.7391 15.8647 26.9344 16.7898 27.6705 17.5155C28.0326 17.8723 28.3789 18.2769 28.6806 18.6295C28.6974 18.6493 28.7141 18.6688 28.7307 18.6879C29.0624 19.0754 29.354 19.4123 29.6553 19.7066C30.2632 20.3004 30.7097 20.5194 31.1438 20.5312C31.6 20.5436 32.4702 20.3371 33.9221 19.0777L36.0208 21.439C34.292 22.9384 32.6629 23.716 31.056 23.6721C29.427 23.6276 28.2468 22.7496 27.4187 21.9407C27.002 21.5336 26.6236 21.0925 26.3022 20.7173L26.2912 20.7045C25.9567 20.3137 25.6883 20.0003 25.4239 19.7397C24.8819 19.2055 24.7153 19.2533 24.694 19.2595C24.693 19.2598 24.6925 19.26 24.6921 19.26C24.2536 19.3425 23.7001 19.6737 23.1138 20.3593C22.8171 20.7064 22.5425 21.1096 22.3008 21.5411C22.7609 22.5986 23.0652 23.7874 23.0807 24.8121C23.0886 25.3419 23.0234 26.0034 22.7044 26.5914C22.328 27.2851 21.6142 27.8154 20.6581 27.8154C19.8425 27.8154 19.1385 27.445 18.6865 26.8201C18.2918 26.2745 18.1607 25.6395 18.1236 25.1216C18.0482 24.0719 18.3131 22.8359 18.7389 21.6989C18.7429 21.688 18.747 21.6771 18.7511 21.6662C18.5321 21.3688 18.3242 21.1703 18.16 21.0726C18.12 21.0488 18.0926 21.0368 18.0761 21.0308C18.0389 21.0474 17.9534 21.0966 17.8218 21.2301C17.1122 21.9507 16.5081 22.7417 15.9345 23.5291C15.8416 23.6566 15.7473 23.7872 15.6521 23.9191C15.1948 24.5529 14.7144 25.2187 14.2467 25.7301C13.7132 26.3136 12.8428 27.1078 11.6193 27.1212C11.1814 27.1261 10.7793 27.0315 10.4104 26.869C8.66727 30.3186 6.583 33.5565 4.34828 36.0207L1.97916 33.924C4.17358 31.5044 6.26891 28.1686 7.99172 24.6009C2.23054 17.1982 1.54907 10.4589 3.48134 6.1987C4.47145 4.01579 6.22361 2.39732 8.37638 2.04795ZM9.46695 21.265C5.19155 15.1011 5.17836 10.1418 6.38409 7.48348C7.06945 5.97243 8.07605 5.28094 8.89202 5.14851C9.62807 5.02906 10.6578 5.29527 11.6546 6.72923C12.1186 7.39681 12.4039 8.81551 12.1997 11.0749C12.0036 13.244 11.3864 15.8767 10.4355 18.6626C10.141 19.525 9.81697 20.3955 9.46695 21.265Z" fill="url(#paint0_linear_4449_8297)"/>
<path fill-rule="evenodd" clip-rule="evenodd" d="M30.2033 34.9727H14.2995V31.8306H30.2033V34.9727Z" fill="url(#paint1_linear_4449_8297)"/>
<defs>
<linearGradient id="paint0_linear_4449_8297" x1="1.97916" y1="1.979" x2="52.0559" y2="9.65225" gradientUnits="userSpaceOnUse">
<stop stop-color="#1644E9"/>
<stop offset="1" stop-color="#D92EF5"/>
</linearGradient>
<linearGradient id="paint1_linear_4449_8297" x1="14.2995" y1="31.8306" x2="29.2507" y2="43.4263" gradientUnits="userSpaceOnUse">
<stop stop-color="#1644E9"/>
<stop offset="1" stop-color="#D92EF5"/>
</linearGradient>
</defs>
</svg>
